<svg height="718" width="720" xmlns="http://www.w3.org/2000/svg">
<rect height="718" fill="#555" width="720"></rect>
<text fill="#7f7" font-family="Courier New" font-size="12" xml:space="preserve">
<tspan x="10" y="26">23 megabytes installed</tspan>
<tspan x="10" y="42"></tspan>
<tspan x="10" y="58">node_modules</tspan>
<tspan x="10" y="74">├─┬ material-ui@0.17.4 </tspan>
<tspan x="10" y="90">│ ├─┬ babel-runtime@6.23.0 </tspan>
<tspan x="10" y="106">│ │ ├── core-js@2.4.1 </tspan>
<tspan x="10" y="122">│ │ └── regenerator-runtime@0.10.3 </tspan>
<tspan x="10" y="138">│ ├─┬ inline-style-prefixer@3.0.2 </tspan>
<tspan x="10" y="154">│ │ ├── bowser@1.6.1 </tspan>
<tspan x="10" y="170">│ │ └─┬ css-in-js-utils@1.0.3 </tspan>
<tspan x="10" y="186">│ │   └── hyphenate-style-name@1.0.2 </tspan>
<tspan x="10" y="202">│ ├── keycode@2.1.8 </tspan>
<tspan x="10" y="218">│ ├── lodash.merge@4.6.0 </tspan>
<tspan x="10" y="234">│ ├── lodash.throttle@4.1.1 </tspan>
<tspan x="10" y="250">│ ├─┬ prop-types@15.5.8 </tspan>
<tspan x="10" y="266">│ │ └─┬ fbjs@0.8.12 </tspan>
<tspan x="10" y="282">│ │   ├── core-js@1.2.7 </tspan>
<tspan x="10" y="298">│ │   ├─┬ isomorphic-fetch@2.2.1 </tspan>
<tspan x="10" y="314">│ │   │ ├─┬ node-fetch@1.6.3 </tspan>
<tspan x="10" y="330">│ │   │ │ ├─┬ encoding@0.1.12 </tspan>
<tspan x="10" y="346">│ │   │ │ │ └── iconv-lite@0.4.15 </tspan>
<tspan x="10" y="362">│ │   │ │ └── is-stream@1.1.0 </tspan>
<tspan x="10" y="378">│ │   │ └── whatwg-fetch@2.0.3 </tspan>
<tspan x="10" y="394">│ │   ├─┬ promise@7.1.1 </tspan>
<tspan x="10" y="410">│ │   │ └── asap@2.0.5 </tspan>
<tspan x="10" y="426">│ │   ├── setimmediate@1.0.5 </tspan>
<tspan x="10" y="442">│ │   └── ua-parser-js@0.7.12 </tspan>
<tspan x="10" y="458">│ ├── UNMET PEER DEPENDENCY react@^15.4.2</tspan>
<tspan x="10" y="474">│ ├─┬ react-addons-create-fragment@15.5.3 </tspan>
<tspan x="10" y="490">│ │ └── object-assign@4.1.1 </tspan>
<tspan x="10" y="506">│ ├── react-addons-transition-group@15.5.2 </tspan>
<tspan x="10" y="522">│ ├── react-event-listener@0.4.5 </tspan>
<tspan x="10" y="538">│ ├─┬ recompose@0.23.1 </tspan>
<tspan x="10" y="554">│ │ ├── change-emitter@0.1.6 </tspan>
<tspan x="10" y="570">│ │ ├── hoist-non-react-statics@1.2.0 </tspan>
<tspan x="10" y="586">│ │ └── symbol-observable@1.0.4 </tspan>
<tspan x="10" y="602">│ ├── simple-assign@0.1.0 </tspan>
<tspan x="10" y="618">│ └─┬ warning@3.0.0 </tspan>
<tspan x="10" y="634">│   └─┬ loose-envify@1.3.1 </tspan>
<tspan x="10" y="650">│     └── js-tokens@3.0.1 </tspan>
<tspan x="10" y="666">├── UNMET PEER DEPENDENCY react@^15.4.0</tspan>
<tspan x="10" y="682">├── UNMET PEER DEPENDENCY react-dom@^15.4.0</tspan>
<tspan x="10" y="698">└── UNMET PEER DEPENDENCY react-tap-event-plugin@^2.0.1</tspan>
</text>
</svg>
